<?xml version="1.0" encoding="utf-8"?>
<!-- Generator: Adobe Illustrator 24.3.0, SVG Export Plug-In . SVG Version: 6.00 Build 0)  -->
<svg version="1.1" id="Layer_1" xmlns="http://www.w3.org/2000/svg" xmlns:xlink="http://www.w3.org/1999/xlink" x="0px" y="0px"
	 viewBox="0 0 241.3 238.8" style="enable-background:new 0 0 241.3 238.8;" xml:space="preserve">
<style type="text/css">
	.st0{fill:#FFFFFF;}
	.st1{fill:none;stroke:#FFFFFF;stroke-width:3;stroke-miterlimit:10;}
</style>
<g>
	<path class="st0" d="M183,183.9c-1.1,0-2-0.9-2-1.9c-0.5-15.9-1.5-42-2.1-44.5l-0.2-0.8c-0.8-3-1.5-5.9-3.6-7.1
		c-2.9-1.7-13.6-7-13.7-7c-1-0.5-1.4-1.7-0.9-2.7c0.5-1,1.7-1.4,2.7-0.9c0.4,0.2,10.9,5.4,14,7.2c3.5,2,4.5,6,5.4,9.5l0.2,0.8
		c1,3.7,2.1,41.1,2.3,45.4c0,1.1-0.8,2-1.9,2.1C183.1,183.9,183.1,183.9,183,183.9L183,183.9z"/>
	<path class="st0" d="M163.4,184c-0.3,0-0.6-0.1-0.9-0.2c-2.5-1.3-4.8-3.1-6.5-5.3c-2.7-3.4-3.7-6.8-4.5-10.8
		c-0.3-1.9-0.4-3.8-0.3-5.7c0.1-2.4,0.1-4.9-0.6-6.2c-0.6-1.2-3.1-5.6-5.8-10.3l-4.1-7.1c-4-7.1-6-10.6-6.5-11.9
		c-1.1-2.1-1.1-4.6-0.2-6.7c0.9-1.8,2.5-3.2,4.4-3.9c1.9-0.8,5.7-1.5,9.8,3.5l19.3,23.3l-3.1,2.5l-19.2-23.5
		c-2.8-3.4-4.6-2.6-5.2-2.4c-1,0.4-1.8,1.1-2.4,2c-0.4,1.1-0.3,2.4,0.3,3.4c0.7,1.6,4.9,9.1,6.3,11.5l4.1,7.1
		c2.8,5,5.3,9.3,5.9,10.5c1.2,2.3,1.1,5.3,1,8.2c-0.1,1.6,0,3.2,0.2,4.8c0.7,3.6,1.6,6.4,3.8,9.1c1.4,1.7,3.2,3.2,5.2,4.2
		c1,0.5,1.4,1.7,0.9,2.7C164.9,183.6,164.2,184,163.4,184L163.4,184z"/>
	<path class="st0" d="M144.6,175.8c-0.7,0-1.3-0.1-1.9-0.2l-36.4-8.8c-4.4-1.1-7.2-5.5-6.1-10l0,0l19.8-82c1.1-4.4,5.6-7.2,10-6.1
		l0,0l36.4,8.8c4.4,1.1,7.2,5.5,6.1,10l0,0l-11.7,48.1c-0.3,1.1-1.3,1.7-2.4,1.5s-1.7-1.3-1.5-2.4l11.6-48.1
		c0.5-2.3-0.9-4.6-3.1-5.1L129,72.6c-2.3-0.5-4.6,0.9-5.1,3.1l-19.8,82c-0.5,2.3,0.9,4.6,3.1,5.1l36.4,8.8c2.3,0.6,4.6-0.8,5.1-3.1
		l0,0l2.5-10.7c0.2-1.1,1.2-1.8,2.3-1.6s1.8,1.2,1.6,2.3c0,0.1,0,0.1,0,0.2l-2.5,10.7C151.8,173.2,148.4,175.8,144.6,175.8z"/>
	<rect x="142.7" y="61.1" transform="matrix(0.2346 -0.9721 0.9721 0.2346 25.9343 207.438)" class="st0" width="4" height="52.3"/>
	
		<rect x="126.5" y="131.8" transform="matrix(0.2346 -0.9721 0.9721 0.2346 -54.4581 245.2753)" class="st0" width="4" height="50.8"/>
	<path class="st0" d="M151.1,84.4c-0.2,0-0.3,0-0.5-0.1l-9.9-2.4c-1.1-0.3-1.7-1.3-1.5-2.4c0.2-1.1,1.3-1.7,2.4-1.5l0,0l9.9,2.4
		c1.1,0.3,1.7,1.4,1.5,2.4C152.8,83.7,152,84.3,151.1,84.4L151.1,84.4z"/>
	<path class="st0" d="M126.4,161.6c-0.9,0-1.6,0.7-1.6,1.5c0,0.7,0.5,1.4,1.2,1.5c0.1,0,0.2,0,0.4,0c0.7,0,1.3-0.5,1.5-1.2l0,0
		c0.2-0.8-0.3-1.7-1.1-1.9C126.6,161.5,126.5,161.5,126.4,161.6L126.4,161.6z"/>
	<path class="st0" d="M101.5,132.3h-0.2l-1.5-0.2C75,129,57,113.1,57,94.3C57,73.2,80.1,56,108.4,56c12.1,0,23.8,3.2,33,8.9
		c0.9,0.6,1.2,1.9,0.6,2.8c-0.6,0.9-1.8,1.2-2.7,0.6c-8.6-5.3-19.5-8.3-30.9-8.3C82.3,60,61,75.4,61,94.3c0,16.8,16.5,31,39.3,33.8
		l1.4,0.2c1.1,0.1,2,1,1.9,2.1C103.5,131.5,102.6,132.4,101.5,132.3L101.5,132.3z"/>
	<path class="st0" d="M73.7,102.9c-1.1,0-2-0.9-2-2c0-0.4,0.1-0.8,0.4-1.1c2.4-3.4,2.4-7.8,0-11.2c-0.7-0.9-0.5-2.1,0.4-2.8
		c0.9-0.7,2.1-0.5,2.8,0.4l0.1,0.1c3.3,4.7,3.3,11,0,15.8C75,102.6,74.3,102.9,73.7,102.9z"/>
	<path class="st0" d="M81.5,106.9c-1.1,0-2-0.9-2-2c0-0.4,0.1-0.7,0.3-1c3.7-5.9,3.7-13.4,0-19.4c-0.6-0.9-0.3-2.2,0.6-2.8
		c0.9-0.6,2.2-0.3,2.8,0.6c4.5,7.2,4.5,16.3,0,23.6C82.8,106.5,82.2,106.9,81.5,106.9z"/>
	<path class="st0" d="M89.5,111c-1.1,0-2-0.9-2-2c0-0.3,0.1-0.7,0.3-1c5-8.6,5-19.2,0-27.7c-0.5-1-0.1-2.2,0.9-2.7
		c0.9-0.4,2-0.1,2.5,0.7c5.7,9.8,5.7,22,0,31.8C90.9,110.6,90.2,111,89.5,111z"/>
	<path class="st0" d="M97.9,115.4c-1.1,0-2-0.9-2-2c0-0.4,0.1-0.7,0.3-1c6.4-11.3,6.4-25.1,0-36.4c-0.6-1-0.2-2.2,0.7-2.7
		c1-0.6,2.2-0.2,2.7,0.7c7.1,12.5,7.1,27.9,0,40.4C99.3,115,98.7,115.4,97.9,115.4z"/>
</g>
<circle class="st1" cx="121" cy="120" r="117"/>
</svg>
