<?xml version="1.0" encoding="UTF-8"?>
<svg id="SVGDoc" width="80pt" height="35pt"  xmlns="http://www.w3.org/2000/svg" version="1.1" xmlns:xlink="http://www.w3.org/1999/xlink" viewBox="0 0 1367 598"><defs></defs><g><g><title>Shape 1</title><path d="M683.5129,0.00279c377.4865,0 683.49999,133.86693 683.49999,299.00003c0,165.1331 -306.01349,298.99999 -683.49999,298.99999c-377.4865,0 -683.49999,-133.86689 -683.49999,-298.99999c0,-165.1331 306.01349,-299.00003 683.49999,-299.00003z" fill="#e9e6e7" fill-opacity="1"></path></g><g><title>Logo</title><path d="M334.65415,398.16945v-275.8404h36.17316v243.289h134.62347v32.55141zM519.86543,298.25729c0,-37.00255 10.19114,-64.41198 30.57924,-82.2253c17.02899,-14.79983 37.78714,-22.20268 62.27741,-22.20268c27.22308,0 49.4729,9.00218 66.7524,27.00072c17.27664,18.00147 25.91783,42.87077 25.91783,74.60489c0,25.71595 -3.82242,45.94299 -11.46725,60.68112c-7.64483,14.74102 -18.77117,26.18637 -33.37616,34.33893c-14.60794,8.15256 -30.55018,12.23029 -47.82683,12.23029c-27.72126,0 -50.12834,-8.96691 -67.21857,-26.90668c-17.093,-17.9368 -25.63807,-43.77622 -25.63807,-77.52129zM554.36033,298.25729c0,25.58957 5.52964,44.75233 16.59492,57.48241c11.06223,12.73305 24.98549,19.09812 41.76682,19.09812c16.65607,0 30.51522,-6.39741 41.58041,-19.1922c11.06232,-12.79475 16.59492,-32.29858 16.59492,-58.51729c0,-24.71051 -5.5646,-43.43229 -16.68808,-56.1653c-11.12643,-12.73011 -24.95643,-19.09812 -41.48725,-19.09812c-16.78133,0 -30.70459,6.33563 -41.76682,19.00401c-11.06527,12.67131 -16.59492,31.7988 -16.59492,57.38837zM732.24309,414.7274l32.63032,4.89216c1.36641,10.16054 5.15673,17.56049 11.374,22.20268c8.32656,6.271 19.70065,9.40793 34.12208,9.40793c15.53723,0 27.5318,-3.13693 35.98666,-9.40793c8.45173,-6.27389 14.17083,-15.05265 17.15416,-26.34218c1.73932,-6.90013 2.54631,-21.3854 2.424,-43.46463c-14.66909,17.43701 -32.94209,26.15403 -54.81899,26.15403c-27.22308,0 -48.29299,-9.90771 -63.20965,-29.72904c-14.91684,-19.81836 -22.37517,-43.58807 -22.37517,-71.31207c0,-19.06575 3.41749,-36.65858 10.25525,-52.77848c6.83489,-16.11693 16.74932,-28.56775 29.74024,-37.34945c12.98806,-8.7788 28.24858,-13.17109 45.77574,-13.17109c23.36857,0 42.63505,9.53434 57.80241,28.60009v-24.08432h30.95216v172.72953c0,31.10793 -3.1406,53.15479 -9.41616,66.13777c-6.27843,12.9829 -16.222,23.23755 -29.8335,30.76388c-13.6115,7.52637 -30.36368,11.28953 -50.25074,11.28953c-23.61909,0 -42.69916,-5.36254 -57.24299,-16.08753c-14.54383,-10.72507 -21.56809,-26.87732 -21.06982,-48.45086zM760.02541,294.68227c0,26.2187 5.15682,45.34619 15.47617,57.38837c10.31649,12.04214 23.24331,18.06321 38.78349,18.06321c15.41206,0 28.34183,-5.98873 38.78358,-17.96917c10.44166,-11.97743 15.66249,-30.76388 15.66249,-56.35346c0,-24.46062 -5.37819,-42.90017 -16.12866,-55.31862c-10.75342,-12.41848 -23.71243,-18.6277 -38.87674,-18.6277c-14.91675,0 -27.596,6.11518 -38.03775,18.34548c-10.44166,12.23029 -15.66258,30.38758 -15.66258,54.47189zM930.8722,298.25729c0,-37.00255 10.19114,-64.41198 30.57924,-82.2253c17.02899,-14.79983 37.78714,-22.20268 62.27741,-22.20268c27.22299,0 49.4729,9.00218 66.7524,27.00072c17.27664,18.00147 25.91783,42.87077 25.91783,74.60489c0,25.71595 -3.82242,45.94299 -11.46734,60.68112c-7.64465,14.74102 -18.77108,26.18637 -33.37616,34.33893c-14.60785,8.15256 -30.55018,12.23029 -47.82674,12.23029c-27.72126,0 -50.12843,-8.96691 -67.21857,-26.90668c-17.093,-17.9368 -25.63807,-43.77622 -25.63807,-77.52129zM965.36711,298.25729c0,25.58957 5.52964,44.75233 16.59483,57.48241c11.06232,12.73305 24.98558,19.09812 41.76691,19.09812c16.65607,0 30.51522,-6.39741 41.58041,-19.1922c11.06223,-12.79475 16.59492,-32.29858 16.59492,-58.51729c0,-24.71051 -5.56469,-43.43229 -16.68817,-56.1653c-11.12643,-12.73011 -24.95635,-19.09812 -41.48716,-19.09812c-16.78133,0 -30.70459,6.33563 -41.76691,19.00401c-11.06519,12.67131 -16.59483,31.7988 -16.59483,57.38837z" fill="#8d7f7f" fill-opacity="1"></path></g></g></svg>