<?xml version="1.0" encoding="utf-8"?>
<!-- Generator: Adobe Illustrator 24.3.0, SVG Export Plug-In . SVG Version: 6.00 Build 0)  -->
<svg version="1.1" id="Layer_1" xmlns="http://www.w3.org/2000/svg" xmlns:xlink="http://www.w3.org/1999/xlink" x="0px" y="0px"
	 viewBox="0 0 84.7 82" style="enable-background:new 0 0 84.7 82;" xml:space="preserve">
<style type="text/css">
	.st0{fill:#D41818;}
	.st1{fill:none;stroke:#D41818;stroke-width:5;stroke-miterlimit:10;}
</style>
<path class="st0" d="M54.2,34.2l-7.5,7.5l7.5,7.5c0.6,0.6,0.6,1.5,0,2.1L51.5,54c-0.6,0.6-1.5,0.6-2.1,0l-7.5-7.5L34.4,54
	c-0.6,0.6-1.5,0.6-2.1,0l-2.7-2.7c-0.6-0.6-0.6-1.5,0-2.1l7.5-7.5l-7.5-7.5c-0.6-0.6-0.6-1.5,0-2.1l2.7-2.7c0.6-0.6,1.5-0.6,2.1,0
	l7.5,7.5l7.5-7.5c0.6-0.6,1.5-0.6,2.1,0l2.7,2.7C54.8,32.7,54.8,33.6,54.2,34.2L54.2,34.2z"/>
<circle class="st1" cx="41.9" cy="41.7" r="38.2"/>
</svg>
