<?xml version="1.0" encoding="utf-8"?>
<!-- Generator: Adobe Illustrator 24.3.0, SVG Export Plug-In . SVG Version: 6.00 Build 0)  -->
<svg version="1.1" id="Capa_1" xmlns="http://www.w3.org/2000/svg" xmlns:xlink="http://www.w3.org/1999/xlink" x="0px" y="0px"
	 viewBox="0 0 128.4 53.6" style="enable-background:new 0 0 128.4 53.6;" xml:space="preserve">
<path d="M127,8.4c-0.9-4.1-4.3-7.1-8.3-7.5c-9.5-1.1-19.1-1.1-28.7-1.1c-9.6,0-19.2,0-28.7,1.1c-4,0.4-7.3,3.5-8.3,7.5
	c-1.3,5.8-1.3,12.1-1.3,18.1s0,12.3,1.3,18.1c0.9,4.1,4.3,7.1,8.3,7.5c9.5,1.1,19.1,1.1,28.7,1.1c9.6,0,19.2,0,28.7-1.1
	c4-0.4,7.3-3.5,8.3-7.5c1.3-5.8,1.3-12.1,1.3-18.1C128.3,20.5,128.3,14.2,127,8.4z M73.6,12.9h-5.5v29.4h-5.1V12.9h-5.4V8.1h16.1
	V12.9z M87.6,42.3H83v-2.8c-1.8,2.1-3.6,3.1-5.3,3.1c-1.5,0-2.5-0.6-3-1.9c-0.3-0.8-0.4-2-0.4-3.8V16.8h4.6v18.8c0,1.1,0,1.6,0,1.8
	c0.1,0.7,0.5,1.1,1.1,1.1c0.9,0,1.9-0.7,2.9-2.2V16.8h4.6L87.6,42.3L87.6,42.3z M105.2,34.6c0,2.4-0.2,4.1-0.5,5.1
	c-0.6,1.9-1.9,2.9-3.7,2.9c-1.6,0-3.2-0.9-4.8-2.8v2.5h-4.6V8.1h4.6v11.2c1.5-1.8,3.1-2.8,4.8-2.8c1.8,0,3.1,1,3.7,2.9
	c0.3,1,0.5,2.7,0.5,5.1V34.6z M122.6,30.4h-9.3v4.5c0,2.4,0.8,3.5,2.4,3.5c1.1,0,1.8-0.6,2.1-1.9c0-0.3,0.1-1.3,0.1-3.1h4.7v0.7
	c0,1.5-0.1,2.5-0.1,3c-0.2,1-0.5,2-1.1,2.8c-1.3,1.9-3.2,2.8-5.6,2.8c-2.4,0-4.3-0.9-5.6-2.6c-1-1.3-1.5-3.3-1.5-6v-8.9
	c0-2.7,0.4-4.7,1.4-6c1.3-1.7,3.2-2.6,5.5-2.6c2.3,0,4.2,0.9,5.5,2.6c1,1.3,1.4,3.3,1.4,6L122.6,30.4L122.6,30.4z"/>
<path d="M115.7,20.6c-1.5,0-2.3,1.2-2.3,3.5v2.4h4.6v-2.4C118,21.8,117.2,20.6,115.7,20.6z"/>
<path d="M98.5,20.6c-0.8,0-1.5,0.4-2.3,1.1v15.6c0.8,0.8,1.5,1.1,2.3,1.1c1.3,0,2-1.1,2-3.4V24.1C100.6,21.8,99.9,20.6,98.5,20.6z"
	/>
<path d="M39.6,42.4c1.7,0,3.5-1,5.3-3.2V42h4.7V16.2h-4.7V36c-1,1.5-2,2.2-3,2.2c-0.6,0-1-0.4-1.1-1.1c-0.1-0.2-0.1-0.7-0.1-1.8v-19
	h-4.7v20.4c0,1.8,0.2,3.1,0.4,3.8C37.1,41.8,38.1,42.4,39.6,42.4z"/>
<path d="M7.1,28v14h5.2V28l6.2-20.6h-5.2L9.7,21L6,7.4H0.6c1.1,3.2,2.2,6.4,3.3,9.6C5.5,21.9,6.6,25.5,7.1,28z"/>
<path d="M25.4,42.4c2.3,0,4.2-0.9,5.5-2.6c1-1.3,1.5-3.3,1.5-6.1v-9c0-2.8-0.5-4.8-1.5-6.1c-1.3-1.8-3.1-2.6-5.5-2.6
	c-2.3,0-4.1,0.9-5.4,2.6c-1,1.3-1.5,3.3-1.5,6.1v9c0,2.7,0.5,4.8,1.5,6.1C21.3,41.5,23.1,42.4,25.4,42.4z M23.2,23.7
	c0-2.4,0.7-3.6,2.2-3.6s2.2,1.2,2.2,3.6v10.9c0,2.4-0.7,3.6-2.2,3.6s-2.2-1.2-2.2-3.6V23.7z"/>
</svg>
