<?xml version="1.0" encoding="utf-8"?>
<!-- Generator: Adobe Illustrator 24.3.0, SVG Export Plug-In . SVG Version: 6.00 Build 0)  -->
<svg version="1.1" id="Layer_1" xmlns="http://www.w3.org/2000/svg" xmlns:xlink="http://www.w3.org/1999/xlink" x="0px" y="0px"
	 viewBox="0 0 84.7 82" style="enable-background:new 0 0 84.7 82;" xml:space="preserve">
<style type="text/css">
	.st0{fill:#F07F3C;stroke:#F07F3C;stroke-width:2;stroke-miterlimit:10;}
	.st1{fill:#F07F3C;}
	.st2{fill:none;stroke:#F07F3C;stroke-width:5;stroke-miterlimit:10;}
</style>
<g>
	<g>
		<path class="st0" d="M56.1,57.5h-28c-1.3,0-2.6-0.7-3.2-1.9c-0.7-1.2-0.7-2.6,0-3.7l14-24.3c0.7-1.2,1.9-1.9,3.2-1.9
			c1.3,0,2.6,0.7,3.2,1.9l14,24.3c0.7,1.2,0.7,2.6,0,3.7C58.7,56.8,57.5,57.5,56.1,57.5z M42.1,27.7c-0.7,0-1.3,0.3-1.6,0.9
			l-14,24.3c-0.3,0.6-0.3,1.3,0,1.9c0.3,0.6,0.9,0.9,1.6,0.9h28c0.7,0,1.3-0.3,1.6-0.9c0.3-0.6,0.3-1.3,0-1.9l0,0l-14-24.3
			C43.4,28,42.8,27.7,42.1,27.7z"/>
	</g>
	<g>
		<circle class="st1" cx="41.9" cy="50.1" r="2.6"/>
		<path class="st1" d="M39.4,38.2l0.4,7.7c0,0.4,0.3,0.6,0.7,0.6h2.7c0.4,0,0.7-0.3,0.7-0.6l0.4-7.7c0-0.4-0.3-0.7-0.7-0.7h-3.6
			C39.7,37.5,39.4,37.8,39.4,38.2L39.4,38.2z"/>
	</g>
</g>
<circle class="st2" cx="42.1" cy="42.7" r="38.2"/>
</svg>
